<svg xmlns="http://www.w3.org/2000/svg" xmlns:xlink="http://www.w3.org/1999/xlink" width="1000" zoomAndPan="magnify" viewBox="0 0 750 374.999991" height="500" preserveAspectRatio="xMidYMid meet" version="1.0"><defs><g/></defs><path fill="#7ed957" d="M 169.992188 118.796875 C 166.585938 121.949219 163.125 125.140625 159.269531 128.707031 C 157.964844 127.871094 156.425781 126.949219 154.949219 125.933594 C 110.734375 95.585938 49.460938 118.257812 36.589844 170.328125 C 25.84375 213.816406 53.808594 252.230469 90.894531 261.800781 C 129.425781 271.738281 166.835938 253.351562 182.1875 217.195312 C 188.457031 202.425781 189.449219 187.078125 185.847656 171.574219 C 184.617188 166.289062 184.765625 161.972656 188.40625 157.785156 C 190.40625 155.492188 191.878906 152.746094 194.011719 149.574219 C 195.113281 151.148438 196.09375 152.117188 196.570312 153.289062 C 207.140625 179.324219 206.753906 205.300781 193.511719 230.03125 C 174.839844 264.882812 144.742188 282.214844 105.429688 280 C 46.753906 276.695312 10.039062 222.816406 20.253906 170.742188 C 28.46875 128.851562 67.867188 92.8125 119.359375 96.9375 C 136.171875 98.285156 151.582031 104.125 165.339844 114.042969 C 166.515625 114.886719 167.660156 115.78125 168.738281 116.742188 C 169.167969 117.128906 169.378906 117.761719 169.992188 118.796875 Z M 169.992188 118.796875 " fill-opacity="1" fill-rule="nonzero"/><path fill="#7ed957" d="M 109.597656 200.722656 C 114.351562 195.464844 118.410156 190.820312 122.628906 186.324219 C 146.539062 160.835938 170.4375 135.339844 194.460938 109.964844 C 198.140625 106.078125 202.359375 102.675781 206.519531 99.277344 C 208.160156 97.933594 210.308594 97.214844 212.226562 96.210938 C 214.519531 99.371094 212.988281 101.585938 211.757812 103.613281 C 207.148438 111.214844 202.628906 118.882812 197.660156 126.246094 C 173.945312 161.375 150.160156 196.453125 126.210938 231.421875 C 123.089844 235.972656 119.113281 240.039062 115.066406 243.828125 C 111.097656 247.539062 109.039062 247.371094 104.625 244.25 C 102.773438 242.941406 100.925781 241.542969 99.390625 239.894531 C 83.996094 223.4375 68.539062 207.039062 53.386719 190.359375 C 47.128906 183.472656 48.132812 179.300781 56.175781 174.6875 C 57.605469 173.867188 59.152344 173.246094 60.617188 172.476562 C 68.707031 168.210938 75.71875 168.800781 82.410156 175.808594 C 89.105469 182.824219 96.609375 189.070312 103.773438 195.632812 C 105.410156 197.136719 107.121094 198.5625 109.597656 200.722656 Z M 109.597656 200.722656 " fill-opacity="1" fill-rule="nonzero"/><g fill="#ffffff" fill-opacity="1"><g transform="translate(236.925835, 244.041392)"><g><path d="M 0 -16.0625 C 0.96875 -15.957031 1.984375 -15.90625 3.046875 -15.90625 C 4.117188 -15.90625 5.140625 -15.90625 6.109375 -15.90625 C 8.890625 -15.90625 11.269531 -16.597656 13.25 -17.984375 C 15.226562 -19.378906 16.21875 -22.273438 16.21875 -26.671875 L 16.21875 -112.453125 L 72.125 -112.453125 L 72.125 -16.0625 L 81.125 -16.0625 L 81.125 12.84375 L 63.125 12.84375 L 63.125 0 L 17.984375 0 L 17.984375 12.84375 L 0 12.84375 Z M 33.890625 -27.953125 C 33.890625 -23.242188 33.410156 -19.28125 32.453125 -16.0625 L 54.453125 -16.0625 L 54.453125 -96.390625 L 33.890625 -96.390625 Z M 33.890625 -27.953125 "/></g></g></g><g fill="#ffffff" fill-opacity="1"><g transform="translate(318.848234, 244.041392)"><g><path d="M 57.515625 -41.921875 L 57.515625 -26.984375 C 57.515625 -17.878906 55.289062 -10.890625 50.84375 -6.015625 C 46.394531 -1.148438 39.835938 1.28125 31.171875 1.28125 C 22.492188 1.28125 15.929688 -1.148438 11.484375 -6.015625 C 7.035156 -10.890625 4.8125 -17.878906 4.8125 -26.984375 L 4.8125 -85.453125 C 4.8125 -94.554688 7.035156 -101.546875 11.484375 -106.421875 C 15.929688 -111.296875 22.492188 -113.734375 31.171875 -113.734375 C 39.835938 -113.734375 46.394531 -111.296875 50.84375 -106.421875 C 55.289062 -101.546875 57.515625 -94.554688 57.515625 -85.453125 L 57.515625 -74.53125 L 40.796875 -74.53125 L 40.796875 -86.578125 C 40.796875 -90.648438 39.96875 -93.515625 38.3125 -95.171875 C 36.65625 -96.835938 34.429688 -97.671875 31.640625 -97.671875 C 28.859375 -97.671875 26.632812 -96.835938 24.96875 -95.171875 C 23.3125 -93.515625 22.484375 -90.648438 22.484375 -86.578125 L 22.484375 -25.859375 C 22.484375 -21.796875 23.3125 -18.957031 24.96875 -17.34375 C 26.632812 -15.738281 28.859375 -14.9375 31.640625 -14.9375 C 34.429688 -14.9375 36.65625 -15.738281 38.3125 -17.34375 C 39.96875 -18.957031 40.796875 -21.796875 40.796875 -25.859375 L 40.796875 -41.921875 Z M 57.515625 -41.921875 "/></g></g></g><g fill="#ffffff" fill-opacity="1"><g transform="translate(381.173509, 244.041392)"><g><path d="M 1.609375 -112.453125 L 56.21875 -112.453125 L 56.21875 -96.390625 L 37.75 -96.390625 L 37.75 0 L 20.078125 0 L 20.078125 -96.390625 L 1.609375 -96.390625 Z M 1.609375 -112.453125 "/></g></g></g><g fill="#ffffff" fill-opacity="1"><g transform="translate(439.001079, 244.041392)"><g><path d="M 11.25 -16.0625 C 12.207031 -15.957031 13.222656 -15.90625 14.296875 -15.90625 C 15.367188 -15.90625 16.382812 -15.90625 17.34375 -15.90625 C 18.738281 -15.90625 20.050781 -16.066406 21.28125 -16.390625 C 22.507812 -16.710938 23.578125 -17.300781 24.484375 -18.15625 C 25.398438 -19.007812 26.097656 -20.238281 26.578125 -21.84375 C 27.066406 -23.445312 27.3125 -25.484375 27.3125 -27.953125 L 1.609375 -112.453125 L 19.28125 -112.453125 L 38.71875 -46.578125 L 54.78125 -112.453125 L 72.453125 -112.453125 L 49.3125 -29.5625 C 47.28125 -21.84375 45.21875 -15.921875 43.125 -11.796875 C 41.039062 -7.679688 38.820312 -4.738281 36.46875 -2.96875 C 34.113281 -1.207031 31.566406 -0.21875 28.828125 0 C 26.097656 0.21875 23.078125 0.328125 19.765625 0.328125 C 18.148438 0.328125 16.703125 0.328125 15.421875 0.328125 C 14.140625 0.328125 12.75 0.21875 11.25 0 Z M 11.25 -16.0625 "/></g></g></g><g fill="#ffffff" fill-opacity="1"><g transform="translate(535.479574, 193.283542)"><g><path d="M 23.578125 -48.25 C 23.578125 -51.113281 23.101562 -53.046875 22.15625 -54.046875 C 21.207031 -55.054688 19.941406 -55.5625 18.359375 -55.5625 C 16.773438 -55.5625 15.507812 -55.085938 14.5625 -54.140625 C 13.625 -53.191406 13.15625 -51.5625 13.15625 -49.25 L 13.15625 -42.390625 L 3.65625 -42.390625 L 3.65625 -48.609375 C 3.65625 -53.785156 4.914062 -57.757812 7.4375 -60.53125 C 9.96875 -63.300781 13.703125 -64.6875 18.640625 -64.6875 C 23.578125 -64.6875 27.304688 -63.300781 29.828125 -60.53125 C 32.359375 -57.757812 33.625 -53.785156 33.625 -48.609375 C 33.625 -45.140625 33.085938 -42.003906 32.015625 -39.203125 C 30.953125 -36.398438 29.628906 -33.835938 28.046875 -31.515625 C 26.460938 -29.203125 24.753906 -27.085938 22.921875 -25.171875 C 21.097656 -23.253906 19.457031 -21.425781 18 -19.6875 C 16.539062 -17.957031 15.382812 -16.238281 14.53125 -14.53125 C 13.675781 -12.820312 13.398438 -11.023438 13.703125 -9.140625 L 32.71875 -9.140625 L 32.71875 0 L 3.65625 0 L 3.65625 -7.859375 C 3.65625 -10.960938 4.140625 -13.703125 5.109375 -16.078125 C 6.085938 -18.453125 7.320312 -20.628906 8.8125 -22.609375 C 10.3125 -24.585938 11.910156 -26.445312 13.609375 -28.1875 C 15.316406 -29.925781 16.914062 -31.769531 18.40625 -33.71875 C 19.90625 -35.664062 21.140625 -37.796875 22.109375 -40.109375 C 23.085938 -42.421875 23.578125 -45.132812 23.578125 -48.25 Z M 23.578125 -48.25 "/></g></g></g><g fill="#ffffff" fill-opacity="1"><g transform="translate(571.661242, 193.283542)"><g><path d="M 23.578125 -48.25 C 23.578125 -51.113281 23.101562 -53.046875 22.15625 -54.046875 C 21.207031 -55.054688 19.941406 -55.5625 18.359375 -55.5625 C 16.773438 -55.5625 15.507812 -55.085938 14.5625 -54.140625 C 13.625 -53.191406 13.15625 -51.5625 13.15625 -49.25 L 13.15625 -42.390625 L 3.65625 -42.390625 L 3.65625 -48.609375 C 3.65625 -53.785156 4.914062 -57.757812 7.4375 -60.53125 C 9.96875 -63.300781 13.703125 -64.6875 18.640625 -64.6875 C 23.578125 -64.6875 27.304688 -63.300781 29.828125 -60.53125 C 32.359375 -57.757812 33.625 -53.785156 33.625 -48.609375 C 33.625 -45.140625 33.085938 -42.003906 32.015625 -39.203125 C 30.953125 -36.398438 29.628906 -33.835938 28.046875 -31.515625 C 26.460938 -29.203125 24.753906 -27.085938 22.921875 -25.171875 C 21.097656 -23.253906 19.457031 -21.425781 18 -19.6875 C 16.539062 -17.957031 15.382812 -16.238281 14.53125 -14.53125 C 13.675781 -12.820312 13.398438 -11.023438 13.703125 -9.140625 L 32.71875 -9.140625 L 32.71875 0 L 3.65625 0 L 3.65625 -7.859375 C 3.65625 -10.960938 4.140625 -13.703125 5.109375 -16.078125 C 6.085938 -18.453125 7.320312 -20.628906 8.8125 -22.609375 C 10.3125 -24.585938 11.910156 -26.445312 13.609375 -28.1875 C 15.316406 -29.925781 16.914062 -31.769531 18.40625 -33.71875 C 19.90625 -35.664062 21.140625 -37.796875 22.109375 -40.109375 C 23.085938 -42.421875 23.578125 -45.132812 23.578125 -48.25 Z M 23.578125 -48.25 "/></g></g></g><g fill="#ffffff" fill-opacity="1"><g transform="translate(607.842909, 193.283542)"><g><path d="M 12.890625 -14.71875 C 12.890625 -12.394531 13.359375 -10.757812 14.296875 -9.8125 C 15.242188 -8.875 16.507812 -8.40625 18.09375 -8.40625 C 19.675781 -8.40625 20.9375 -8.875 21.875 -9.8125 C 22.820312 -10.757812 23.296875 -12.394531 23.296875 -14.71875 L 23.296875 -49.25 C 23.296875 -51.5625 22.820312 -53.191406 21.875 -54.140625 C 20.9375 -55.085938 19.675781 -55.5625 18.09375 -55.5625 C 16.507812 -55.5625 15.242188 -55.085938 14.296875 -54.140625 C 13.359375 -53.191406 12.890625 -51.5625 12.890625 -49.25 Z M 2.828125 -48.609375 C 2.828125 -53.785156 4.132812 -57.757812 6.75 -60.53125 C 9.375 -63.300781 13.15625 -64.6875 18.09375 -64.6875 C 23.03125 -64.6875 26.804688 -63.300781 29.421875 -60.53125 C 32.046875 -57.757812 33.359375 -53.785156 33.359375 -48.609375 L 33.359375 -15.34375 C 33.359375 -10.164062 32.046875 -6.191406 29.421875 -3.421875 C 26.804688 -0.648438 23.03125 0.734375 18.09375 0.734375 C 13.15625 0.734375 9.375 -0.648438 6.75 -3.421875 C 4.132812 -6.191406 2.828125 -10.164062 2.828125 -15.34375 Z M 2.828125 -48.609375 "/></g></g></g><g fill="#ffffff" fill-opacity="1"><g transform="translate(644.024577, 193.283542)"><g><path d="M 12.890625 -14.71875 C 12.890625 -12.394531 13.359375 -10.757812 14.296875 -9.8125 C 15.242188 -8.875 16.507812 -8.40625 18.09375 -8.40625 C 19.675781 -8.40625 20.9375 -8.875 21.875 -9.8125 C 22.820312 -10.757812 23.296875 -12.394531 23.296875 -14.71875 L 23.296875 -49.25 C 23.296875 -51.5625 22.820312 -53.191406 21.875 -54.140625 C 20.9375 -55.085938 19.675781 -55.5625 18.09375 -55.5625 C 16.507812 -55.5625 15.242188 -55.085938 14.296875 -54.140625 C 13.359375 -53.191406 12.890625 -51.5625 12.890625 -49.25 Z M 2.828125 -48.609375 C 2.828125 -53.785156 4.132812 -57.757812 6.75 -60.53125 C 9.375 -63.300781 13.15625 -64.6875 18.09375 -64.6875 C 23.03125 -64.6875 26.804688 -63.300781 29.421875 -60.53125 C 32.046875 -57.757812 33.359375 -53.785156 33.359375 -48.609375 L 33.359375 -15.34375 C 33.359375 -10.164062 32.046875 -6.191406 29.421875 -3.421875 C 26.804688 -0.648438 23.03125 0.734375 18.09375 0.734375 C 13.15625 0.734375 9.375 -0.648438 6.75 -3.421875 C 4.132812 -6.191406 2.828125 -10.164062 2.828125 -15.34375 Z M 2.828125 -48.609375 "/></g></g></g><g fill="#ffffff" fill-opacity="1"><g transform="translate(680.206245, 193.283542)"><g><path d="M 12.890625 -14.71875 C 12.890625 -12.394531 13.359375 -10.757812 14.296875 -9.8125 C 15.242188 -8.875 16.507812 -8.40625 18.09375 -8.40625 C 19.675781 -8.40625 20.9375 -8.875 21.875 -9.8125 C 22.820312 -10.757812 23.296875 -12.394531 23.296875 -14.71875 L 23.296875 -49.25 C 23.296875 -51.5625 22.820312 -53.191406 21.875 -54.140625 C 20.9375 -55.085938 19.675781 -55.5625 18.09375 -55.5625 C 16.507812 -55.5625 15.242188 -55.085938 14.296875 -54.140625 C 13.359375 -53.191406 12.890625 -51.5625 12.890625 -49.25 Z M 2.828125 -48.609375 C 2.828125 -53.785156 4.132812 -57.757812 6.75 -60.53125 C 9.375 -63.300781 13.15625 -64.6875 18.09375 -64.6875 C 23.03125 -64.6875 26.804688 -63.300781 29.421875 -60.53125 C 32.046875 -57.757812 33.359375 -53.785156 33.359375 -48.609375 L 33.359375 -15.34375 C 33.359375 -10.164062 32.046875 -6.191406 29.421875 -3.421875 C 26.804688 -0.648438 23.03125 0.734375 18.09375 0.734375 C 13.15625 0.734375 9.375 -0.648438 6.75 -3.421875 C 4.132812 -6.191406 2.828125 -10.164062 2.828125 -15.34375 Z M 2.828125 -48.609375 "/></g></g></g><g fill="#ffffff" fill-opacity="1"><g transform="translate(537.131144, 242.398532)"><g><path d="M 16.40625 -11.921875 L 16.40625 -7.671875 C 16.40625 -5.085938 15.769531 -3.101562 14.5 -1.71875 C 13.238281 -0.332031 11.375 0.359375 8.90625 0.359375 C 6.4375 0.359375 4.570312 -0.332031 3.3125 -1.71875 C 2.050781 -3.101562 1.421875 -5.085938 1.421875 -7.671875 L 1.421875 -24.3125 C 1.421875 -26.894531 2.050781 -28.878906 3.3125 -30.265625 C 4.570312 -31.648438 6.4375 -32.34375 8.90625 -32.34375 C 11.375 -32.34375 13.238281 -31.648438 14.5 -30.265625 C 15.769531 -28.878906 16.40625 -26.894531 16.40625 -24.3125 L 16.40625 -21.203125 L 11.65625 -21.203125 L 11.65625 -24.625 C 11.65625 -25.78125 11.414062 -26.59375 10.9375 -27.0625 C 10.46875 -27.539062 9.835938 -27.78125 9.046875 -27.78125 C 8.253906 -27.78125 7.617188 -27.539062 7.140625 -27.0625 C 6.671875 -26.59375 6.4375 -25.78125 6.4375 -24.625 L 6.4375 -7.359375 C 6.4375 -6.203125 6.671875 -5.394531 7.140625 -4.9375 C 7.617188 -4.476562 8.253906 -4.25 9.046875 -4.25 C 9.835938 -4.25 10.46875 -4.476562 10.9375 -4.9375 C 11.414062 -5.394531 11.65625 -6.203125 11.65625 -7.359375 L 11.65625 -11.921875 Z M 16.40625 -11.921875 "/></g></g></g><g fill="#ffffff" fill-opacity="1"><g transform="translate(559.742009, 242.398532)"><g><path d="M 6.859375 -18.5 L 13.75 -18.5 L 13.75 -13.9375 L 6.859375 -13.9375 L 6.859375 -4.5625 L 15.53125 -4.5625 L 15.53125 0 L 1.828125 0 L 1.828125 -31.984375 L 15.53125 -31.984375 L 15.53125 -27.40625 L 6.859375 -27.40625 Z M 6.859375 -18.5 "/></g></g></g><g fill="#ffffff" fill-opacity="1"><g transform="translate(581.530694, 242.398532)"><g><path d="M 12.328125 0 C 12.273438 -0.207031 12.21875 -0.40625 12.15625 -0.59375 C 12.09375 -0.78125 12.035156 -1.007812 11.984375 -1.28125 C 11.941406 -1.550781 11.910156 -1.898438 11.890625 -2.328125 C 11.878906 -2.753906 11.875 -3.285156 11.875 -3.921875 L 11.875 -8.953125 C 11.875 -10.441406 11.613281 -11.488281 11.09375 -12.09375 C 10.582031 -12.707031 9.75 -13.015625 8.59375 -13.015625 L 6.859375 -13.015625 L 6.859375 0 L 1.828125 0 L 1.828125 -31.984375 L 9.40625 -31.984375 C 12.03125 -31.984375 13.925781 -31.375 15.09375 -30.15625 C 16.269531 -28.9375 16.859375 -27.09375 16.859375 -24.625 L 16.859375 -22.109375 C 16.859375 -18.816406 15.757812 -16.65625 13.5625 -15.625 C 14.84375 -15.101562 15.71875 -14.253906 16.1875 -13.078125 C 16.664062 -11.910156 16.90625 -10.488281 16.90625 -8.8125 L 16.90625 -3.890625 C 16.90625 -3.097656 16.9375 -2.398438 17 -1.796875 C 17.0625 -1.203125 17.210938 -0.601562 17.453125 0 Z M 6.859375 -27.40625 L 6.859375 -17.59375 L 8.8125 -17.59375 C 9.757812 -17.59375 10.5 -17.832031 11.03125 -18.3125 C 11.5625 -18.800781 11.828125 -19.6875 11.828125 -20.96875 L 11.828125 -24.125 C 11.828125 -25.28125 11.617188 -26.113281 11.203125 -26.625 C 10.796875 -27.144531 10.15625 -27.40625 9.28125 -27.40625 Z M 6.859375 -27.40625 "/></g></g></g><g fill="#ffffff" fill-opacity="1"><g transform="translate(604.87238, 242.398532)"><g><path d="M 0.453125 -31.984375 L 15.984375 -31.984375 L 15.984375 -27.40625 L 10.734375 -27.40625 L 10.734375 0 L 5.703125 0 L 5.703125 -27.40625 L 0.453125 -27.40625 Z M 0.453125 -31.984375 "/></g></g></g><g fill="#ffffff" fill-opacity="1"><g transform="translate(626.295659, 242.398532)"><g><path d="M 1.828125 -31.984375 L 6.859375 -31.984375 L 6.859375 0 L 1.828125 0 Z M 1.828125 -31.984375 "/></g></g></g><g fill="#ffffff" fill-opacity="1"><g transform="translate(639.953929, 242.398532)"><g><path d="M 6.859375 -17.765625 L 13.34375 -17.765625 L 13.34375 -13.203125 L 6.859375 -13.203125 L 6.859375 0 L 1.828125 0 L 1.828125 -31.984375 L 15.125 -31.984375 L 15.125 -27.40625 L 6.859375 -27.40625 Z M 6.859375 -17.765625 "/></g></g></g><g fill="#ffffff" fill-opacity="1"><g transform="translate(660.646385, 242.398532)"><g><path d="M 1.828125 -31.984375 L 6.859375 -31.984375 L 6.859375 0 L 1.828125 0 Z M 1.828125 -31.984375 "/></g></g></g><g fill="#ffffff" fill-opacity="1"><g transform="translate(674.304655, 242.398532)"><g><path d="M 6.859375 -18.5 L 13.75 -18.5 L 13.75 -13.9375 L 6.859375 -13.9375 L 6.859375 -4.5625 L 15.53125 -4.5625 L 15.53125 0 L 1.828125 0 L 1.828125 -31.984375 L 15.53125 -31.984375 L 15.53125 -27.40625 L 6.859375 -27.40625 Z M 6.859375 -18.5 "/></g></g></g><g fill="#ffffff" fill-opacity="1"><g transform="translate(696.093333, 242.398532)"><g><path d="M 1.828125 -31.984375 L 9.78125 -31.984375 C 12.300781 -31.984375 14.175781 -31.3125 15.40625 -29.96875 C 16.644531 -28.625 17.265625 -26.660156 17.265625 -24.078125 L 17.265625 -7.90625 C 17.265625 -5.3125 16.644531 -3.34375 15.40625 -2 C 14.175781 -0.664062 12.300781 0 9.78125 0 L 1.828125 0 Z M 6.859375 -27.40625 L 6.859375 -4.5625 L 9.6875 -4.5625 C 10.476562 -4.5625 11.101562 -4.789062 11.5625 -5.25 C 12.019531 -5.707031 12.25 -6.515625 12.25 -7.671875 L 12.25 -24.3125 C 12.25 -25.46875 12.019531 -26.269531 11.5625 -26.71875 C 11.101562 -27.175781 10.476562 -27.40625 9.6875 -27.40625 Z M 6.859375 -27.40625 "/></g></g></g></svg>