<svg xmlns="http://www.w3.org/2000/svg" xmlns:xlink="http://www.w3.org/1999/xlink" width="1000" zoomAndPan="magnify" viewBox="0 0 750 374.999991" height="500" preserveAspectRatio="xMidYMid meet" version="1.0"><defs><g/></defs><path fill="#7ed957" d="M 173.496094 114.738281 C 170.085938 117.890625 166.628906 121.085938 162.773438 124.648438 C 161.46875 123.8125 159.929688 122.890625 158.449219 121.875 C 114.234375 91.53125 52.964844 114.203125 40.09375 166.269531 C 29.34375 209.757812 57.308594 248.171875 94.398438 257.742188 C 132.929688 267.683594 170.339844 249.296875 185.691406 213.136719 C 191.960938 198.367188 192.949219 183.023438 189.347656 167.515625 C 188.121094 162.234375 188.265625 157.914062 191.910156 153.730469 C 193.90625 151.4375 195.378906 148.691406 197.515625 145.515625 C 198.617188 147.09375 199.597656 148.058594 200.070312 149.230469 C 210.640625 175.265625 210.257812 201.242188 197.011719 225.972656 C 178.34375 260.828125 148.246094 278.15625 108.929688 275.945312 C 50.257812 272.640625 13.542969 218.757812 23.753906 166.683594 C 31.972656 124.792969 71.371094 88.753906 122.863281 92.878906 C 139.671875 94.226562 155.085938 100.070312 168.84375 109.984375 C 170.015625 110.832031 171.164062 111.722656 172.242188 112.6875 C 172.671875 113.070312 172.878906 113.703125 173.496094 114.738281 Z M 173.496094 114.738281 " fill-opacity="1" fill-rule="nonzero"/><path fill="#7ed957" d="M 113.101562 196.664062 C 117.855469 191.40625 121.914062 186.761719 126.132812 182.265625 C 150.039062 156.777344 173.941406 131.285156 197.964844 105.90625 C 201.644531 102.019531 205.863281 98.617188 210.019531 95.21875 C 211.660156 93.878906 213.8125 93.15625 215.730469 92.152344 C 218.023438 95.3125 216.492188 97.527344 215.257812 99.554688 C 210.652344 107.15625 206.132812 114.824219 201.164062 122.1875 C 177.449219 157.316406 153.664062 192.398438 129.714844 227.363281 C 126.59375 231.917969 122.617188 235.984375 118.570312 239.773438 C 114.601562 243.484375 112.539062 243.3125 108.128906 240.191406 C 106.277344 238.886719 104.429688 237.484375 102.890625 235.835938 C 87.5 219.378906 72.039062 202.980469 56.890625 186.304688 C 50.632812 179.414062 51.636719 175.246094 59.675781 170.628906 C 61.105469 169.808594 62.652344 169.191406 64.117188 168.417969 C 72.210938 164.152344 79.21875 164.742188 85.914062 171.75 C 92.609375 178.765625 100.109375 185.011719 107.277344 191.578125 C 108.914062 193.082031 110.625 194.503906 113.101562 196.664062 Z M 113.101562 196.664062 " fill-opacity="1" fill-rule="nonzero"/><g fill="#ffffff" fill-opacity="1"><g transform="translate(251.91199, 254.914421)"><g><path d="M 31.265625 0 L 8.34375 0 L 8.34375 -145.90625 L 31.265625 -145.90625 L 31.265625 -83.375 L 57.3125 -83.375 L 57.3125 -145.90625 L 80.671875 -145.90625 L 80.671875 0 L 57.3125 0 L 57.3125 -62.53125 L 31.265625 -62.53125 Z M 31.265625 0 "/></g></g></g><g fill="#ffffff" fill-opacity="1"><g transform="translate(340.909966, 254.914421)"><g><path d="M 82.546875 0 L 59.40625 0 L 55.4375 -26.46875 L 27.3125 -26.46875 L 23.34375 0 L 2.296875 0 L 25.640625 -145.90625 L 59.203125 -145.90625 Z M 30.21875 -46.265625 L 52.3125 -46.265625 L 41.265625 -120.0625 Z M 30.21875 -46.265625 "/></g></g></g><g fill="#ffffff" fill-opacity="1"><g transform="translate(425.739416, 254.914421)"><g><path d="M 74.828125 -54.40625 L 74.828125 -35.015625 C 74.828125 -23.203125 71.941406 -14.132812 66.171875 -7.8125 C 60.410156 -1.488281 51.898438 1.671875 40.640625 1.671875 C 29.390625 1.671875 20.878906 -1.488281 15.109375 -7.8125 C 9.347656 -14.132812 6.46875 -23.203125 6.46875 -35.015625 L 6.46875 -110.890625 C 6.46875 -122.703125 9.347656 -131.769531 15.109375 -138.09375 C 20.878906 -144.414062 29.390625 -147.578125 40.640625 -147.578125 C 51.898438 -147.578125 60.410156 -144.414062 66.171875 -138.09375 C 71.941406 -131.769531 74.828125 -122.703125 74.828125 -110.890625 L 74.828125 -96.71875 L 53.15625 -96.71875 L 53.15625 -112.34375 C 53.15625 -117.625 52.078125 -121.34375 49.921875 -123.5 C 47.765625 -125.65625 44.878906 -126.734375 41.265625 -126.734375 C 37.648438 -126.734375 34.765625 -125.65625 32.609375 -123.5 C 30.460938 -121.34375 29.390625 -117.625 29.390625 -112.34375 L 29.390625 -33.5625 C 29.390625 -28.28125 30.460938 -24.597656 32.609375 -22.515625 C 34.765625 -20.429688 37.648438 -19.390625 41.265625 -19.390625 C 44.878906 -19.390625 47.765625 -20.429688 49.921875 -22.515625 C 52.078125 -24.597656 53.15625 -28.28125 53.15625 -33.5625 L 53.15625 -54.40625 Z M 74.828125 -54.40625 "/></g></g></g><g fill="#ffffff" fill-opacity="1"><g transform="translate(506.191913, 254.914421)"><g><path d="M 74.828125 -54.40625 L 74.828125 -35.015625 C 74.828125 -23.203125 71.941406 -14.132812 66.171875 -7.8125 C 60.410156 -1.488281 51.898438 1.671875 40.640625 1.671875 C 29.390625 1.671875 20.878906 -1.488281 15.109375 -7.8125 C 9.347656 -14.132812 6.46875 -23.203125 6.46875 -35.015625 L 6.46875 -110.890625 C 6.46875 -122.703125 9.347656 -131.769531 15.109375 -138.09375 C 20.878906 -144.414062 29.390625 -147.578125 40.640625 -147.578125 C 51.898438 -147.578125 60.410156 -144.414062 66.171875 -138.09375 C 71.941406 -131.769531 74.828125 -122.703125 74.828125 -110.890625 L 74.828125 -96.71875 L 53.15625 -96.71875 L 53.15625 -112.34375 C 53.15625 -117.625 52.078125 -121.34375 49.921875 -123.5 C 47.765625 -125.65625 44.878906 -126.734375 41.265625 -126.734375 C 37.648438 -126.734375 34.765625 -125.65625 32.609375 -123.5 C 30.460938 -121.34375 29.390625 -117.625 29.390625 -112.34375 L 29.390625 -33.5625 C 29.390625 -28.28125 30.460938 -24.597656 32.609375 -22.515625 C 34.765625 -20.429688 37.648438 -19.390625 41.265625 -19.390625 C 44.878906 -19.390625 47.765625 -20.429688 49.921875 -22.515625 C 52.078125 -24.597656 53.15625 -28.28125 53.15625 -33.5625 L 53.15625 -54.40625 Z M 74.828125 -54.40625 "/></g></g></g><g fill="#ffffff" fill-opacity="1"><g transform="translate(586.644423, 254.914421)"><g><path d="M 42.109375 -145.90625 C 53.640625 -145.90625 62.21875 -142.847656 67.84375 -136.734375 C 73.46875 -130.617188 76.28125 -121.65625 76.28125 -109.84375 L 76.28125 -90.875 C 76.28125 -79.0625 73.46875 -70.097656 67.84375 -63.984375 C 62.21875 -57.867188 53.640625 -54.8125 42.109375 -54.8125 L 31.265625 -54.8125 L 31.265625 0 L 8.34375 0 L 8.34375 -145.90625 Z M 31.265625 -125.0625 L 31.265625 -75.65625 L 42.109375 -75.65625 C 45.722656 -75.65625 48.5 -76.628906 50.4375 -78.578125 C 52.382812 -80.523438 53.359375 -84.140625 53.359375 -89.421875 L 53.359375 -111.3125 C 53.359375 -116.582031 52.382812 -120.191406 50.4375 -122.140625 C 48.5 -124.085938 45.722656 -125.0625 42.109375 -125.0625 Z M 31.265625 -125.0625 "/></g></g></g></svg>