<svg xmlns="http://www.w3.org/2000/svg" xmlns:xlink="http://www.w3.org/1999/xlink" width="1000" zoomAndPan="magnify" viewBox="0 0 750 374.999991" height="500" preserveAspectRatio="xMidYMid meet" version="1.0"><defs><g/></defs><path fill="#7ed957" d="M 169.992188 118.796875 C 166.585938 121.949219 163.125 125.140625 159.269531 128.707031 C 157.964844 127.871094 156.425781 126.949219 154.949219 125.933594 C 110.734375 95.585938 49.460938 118.257812 36.589844 170.328125 C 25.84375 213.816406 53.808594 252.230469 90.894531 261.800781 C 129.425781 271.738281 166.835938 253.351562 182.1875 217.195312 C 188.457031 202.425781 189.449219 187.078125 185.847656 171.574219 C 184.617188 166.289062 184.765625 161.972656 188.40625 157.785156 C 190.40625 155.492188 191.878906 152.746094 194.011719 149.574219 C 195.113281 151.148438 196.09375 152.117188 196.570312 153.289062 C 207.140625 179.324219 206.753906 205.300781 193.511719 230.03125 C 174.839844 264.882812 144.742188 282.214844 105.429688 280 C 46.753906 276.695312 10.039062 222.816406 20.253906 170.742188 C 28.46875 128.851562 67.867188 92.8125 119.359375 96.9375 C 136.171875 98.285156 151.582031 104.125 165.339844 114.042969 C 166.515625 114.886719 167.660156 115.78125 168.738281 116.742188 C 169.167969 117.128906 169.378906 117.761719 169.992188 118.796875 Z M 169.992188 118.796875 " fill-opacity="1" fill-rule="nonzero"/><path fill="#7ed957" d="M 109.597656 200.722656 C 114.351562 195.464844 118.410156 190.820312 122.628906 186.324219 C 146.539062 160.835938 170.4375 135.339844 194.460938 109.964844 C 198.140625 106.078125 202.359375 102.675781 206.519531 99.277344 C 208.160156 97.933594 210.308594 97.214844 212.226562 96.210938 C 214.519531 99.371094 212.988281 101.585938 211.757812 103.613281 C 207.148438 111.214844 202.628906 118.882812 197.660156 126.246094 C 173.945312 161.375 150.160156 196.453125 126.210938 231.421875 C 123.089844 235.972656 119.113281 240.039062 115.066406 243.828125 C 111.097656 247.539062 109.039062 247.371094 104.625 244.25 C 102.773438 242.941406 100.925781 241.542969 99.390625 239.894531 C 83.996094 223.4375 68.539062 207.039062 53.386719 190.359375 C 47.128906 183.472656 48.132812 179.300781 56.175781 174.6875 C 57.605469 173.867188 59.152344 173.246094 60.617188 172.476562 C 68.707031 168.210938 75.71875 168.800781 82.410156 175.808594 C 89.105469 182.824219 96.609375 189.070312 103.773438 195.632812 C 105.410156 197.136719 107.121094 198.5625 109.597656 200.722656 Z M 109.597656 200.722656 " fill-opacity="1" fill-rule="nonzero"/><g fill="#ffffff" fill-opacity="1"><g transform="translate(256.120715, 263.420234)"><g><path d="M 8.4375 -147.75 L 31.65625 -147.75 L 31.65625 0 L 8.4375 0 Z M 8.4375 -147.75 "/></g></g></g><g fill="#ffffff" fill-opacity="1"><g transform="translate(296.224773, 263.420234)"><g><path d="M 5.484375 -112.296875 C 5.484375 -124.253906 8.332031 -133.429688 14.03125 -139.828125 C 19.726562 -146.234375 28.28125 -149.4375 39.6875 -149.4375 C 51.082031 -149.4375 59.628906 -146.234375 65.328125 -139.828125 C 71.023438 -133.429688 73.875 -124.253906 73.875 -112.296875 L 73.875 -106.59375 L 51.921875 -106.59375 L 51.921875 -113.765625 C 51.921875 -119.117188 50.898438 -122.882812 48.859375 -125.0625 C 46.816406 -127.238281 43.96875 -128.328125 40.3125 -128.328125 C 36.65625 -128.328125 33.804688 -127.238281 31.765625 -125.0625 C 29.722656 -122.882812 28.703125 -119.117188 28.703125 -113.765625 C 28.703125 -108.703125 29.828125 -104.234375 32.078125 -100.359375 C 34.335938 -96.492188 37.15625 -92.835938 40.53125 -89.390625 C 43.90625 -85.941406 47.523438 -82.492188 51.390625 -79.046875 C 55.265625 -75.597656 58.890625 -71.832031 62.265625 -67.75 C 65.640625 -63.675781 68.453125 -59.035156 70.703125 -53.828125 C 72.960938 -48.617188 74.09375 -42.5 74.09375 -35.46875 C 74.09375 -23.5 71.171875 -14.3125 65.328125 -7.90625 C 59.484375 -1.507812 50.863281 1.6875 39.46875 1.6875 C 28.070312 1.6875 19.453125 -1.507812 13.609375 -7.90625 C 7.773438 -14.3125 4.859375 -23.5 4.859375 -35.46875 L 4.859375 -45.59375 L 26.8125 -45.59375 L 26.8125 -33.984375 C 26.8125 -28.640625 27.898438 -24.910156 30.078125 -22.796875 C 32.253906 -20.679688 35.175781 -19.625 38.84375 -19.625 C 42.5 -19.625 45.414062 -20.679688 47.59375 -22.796875 C 49.78125 -24.910156 50.875 -28.640625 50.875 -33.984375 C 50.875 -39.046875 49.742188 -43.507812 47.484375 -47.375 C 45.234375 -51.25 42.421875 -54.910156 39.046875 -58.359375 C 35.671875 -61.804688 32.046875 -65.253906 28.171875 -68.703125 C 24.304688 -72.148438 20.6875 -75.914062 17.3125 -80 C 13.9375 -84.082031 11.117188 -88.722656 8.859375 -93.921875 C 6.609375 -99.128906 5.484375 -105.253906 5.484375 -112.296875 Z M 5.484375 -112.296875 "/></g></g></g><g fill="#ffffff" fill-opacity="1"><g transform="translate(375.166458, 263.420234)"><g><path d="M 29.765625 -33.984375 C 29.765625 -28.640625 30.851562 -24.875 33.03125 -22.6875 C 35.21875 -20.507812 38.140625 -19.421875 41.796875 -19.421875 C 45.453125 -19.421875 48.367188 -20.507812 50.546875 -22.6875 C 52.734375 -24.875 53.828125 -28.640625 53.828125 -33.984375 L 53.828125 -113.765625 C 53.828125 -119.117188 52.734375 -122.882812 50.546875 -125.0625 C 48.367188 -127.238281 45.453125 -128.328125 41.796875 -128.328125 C 38.140625 -128.328125 35.21875 -127.238281 33.03125 -125.0625 C 30.851562 -122.882812 29.765625 -119.117188 29.765625 -113.765625 Z M 6.546875 -112.296875 C 6.546875 -124.253906 9.570312 -133.429688 15.625 -139.828125 C 21.675781 -146.234375 30.398438 -149.4375 41.796875 -149.4375 C 53.191406 -149.4375 61.914062 -146.234375 67.96875 -139.828125 C 74.019531 -133.429688 77.046875 -124.253906 77.046875 -112.296875 L 77.046875 -35.46875 C 77.046875 -23.5 74.019531 -14.3125 67.96875 -7.90625 C 61.914062 -1.507812 53.191406 1.6875 41.796875 1.6875 C 30.398438 1.6875 21.675781 -1.507812 15.625 -7.90625 C 9.570312 -14.3125 6.546875 -23.5 6.546875 -35.46875 Z M 6.546875 -112.296875 "/></g></g></g><g fill="#ffffff" fill-opacity="1"><g transform="translate(488.666569, 197.543154)"><g><path d="M 30.3125 -62.046875 C 30.3125 -65.734375 29.703125 -68.222656 28.484375 -69.515625 C 27.273438 -70.804688 25.65625 -71.453125 23.625 -71.453125 C 21.582031 -71.453125 19.953125 -70.84375 18.734375 -69.625 C 17.523438 -68.414062 16.921875 -66.320312 16.921875 -63.34375 L 16.921875 -54.53125 L 4.703125 -54.53125 L 4.703125 -62.515625 C 4.703125 -69.171875 6.328125 -74.28125 9.578125 -77.84375 C 12.828125 -81.414062 17.625 -83.203125 23.96875 -83.203125 C 30.3125 -83.203125 35.109375 -81.414062 38.359375 -77.84375 C 41.617188 -74.28125 43.25 -69.171875 43.25 -62.515625 C 43.25 -58.046875 42.5625 -54.007812 41.1875 -50.40625 C 39.8125 -46.8125 38.101562 -43.523438 36.0625 -40.546875 C 34.03125 -37.566406 31.835938 -34.84375 29.484375 -32.375 C 27.140625 -29.90625 25.023438 -27.550781 23.140625 -25.3125 C 21.265625 -23.082031 19.78125 -20.867188 18.6875 -18.671875 C 17.59375 -16.484375 17.238281 -14.175781 17.625 -11.75 L 42.078125 -11.75 L 42.078125 0 L 4.703125 0 L 4.703125 -10.109375 C 4.703125 -14.097656 5.328125 -17.617188 6.578125 -20.671875 C 7.835938 -23.734375 9.425781 -26.535156 11.34375 -29.078125 C 13.257812 -31.628906 15.3125 -34.019531 17.5 -36.25 C 19.695312 -38.488281 21.753906 -40.859375 23.671875 -43.359375 C 25.597656 -45.867188 27.1875 -48.613281 28.4375 -51.59375 C 29.6875 -54.570312 30.3125 -58.054688 30.3125 -62.046875 Z M 30.3125 -62.046875 "/></g></g></g><g fill="#ffffff" fill-opacity="1"><g transform="translate(535.201058, 197.543154)"><g><path d="M 30.3125 -62.046875 C 30.3125 -65.734375 29.703125 -68.222656 28.484375 -69.515625 C 27.273438 -70.804688 25.65625 -71.453125 23.625 -71.453125 C 21.582031 -71.453125 19.953125 -70.84375 18.734375 -69.625 C 17.523438 -68.414062 16.921875 -66.320312 16.921875 -63.34375 L 16.921875 -54.53125 L 4.703125 -54.53125 L 4.703125 -62.515625 C 4.703125 -69.171875 6.328125 -74.28125 9.578125 -77.84375 C 12.828125 -81.414062 17.625 -83.203125 23.96875 -83.203125 C 30.3125 -83.203125 35.109375 -81.414062 38.359375 -77.84375 C 41.617188 -74.28125 43.25 -69.171875 43.25 -62.515625 C 43.25 -58.046875 42.5625 -54.007812 41.1875 -50.40625 C 39.8125 -46.8125 38.101562 -43.523438 36.0625 -40.546875 C 34.03125 -37.566406 31.835938 -34.84375 29.484375 -32.375 C 27.140625 -29.90625 25.023438 -27.550781 23.140625 -25.3125 C 21.265625 -23.082031 19.78125 -20.867188 18.6875 -18.671875 C 17.59375 -16.484375 17.238281 -14.175781 17.625 -11.75 L 42.078125 -11.75 L 42.078125 0 L 4.703125 0 L 4.703125 -10.109375 C 4.703125 -14.097656 5.328125 -17.617188 6.578125 -20.671875 C 7.835938 -23.734375 9.425781 -26.535156 11.34375 -29.078125 C 13.257812 -31.628906 15.3125 -34.019531 17.5 -36.25 C 19.695312 -38.488281 21.753906 -40.859375 23.671875 -43.359375 C 25.597656 -45.867188 27.1875 -48.613281 28.4375 -51.59375 C 29.6875 -54.570312 30.3125 -58.054688 30.3125 -62.046875 Z M 30.3125 -62.046875 "/></g></g></g><g fill="#ffffff" fill-opacity="1"><g transform="translate(581.735547, 197.543154)"><g><path d="M 16.5625 -18.921875 C 16.5625 -15.941406 17.171875 -13.84375 18.390625 -12.625 C 19.609375 -11.414062 21.234375 -10.8125 23.265625 -10.8125 C 25.304688 -10.8125 26.929688 -11.414062 28.140625 -12.625 C 29.359375 -13.84375 29.96875 -15.941406 29.96875 -18.921875 L 29.96875 -63.34375 C 29.96875 -66.320312 29.359375 -68.414062 28.140625 -69.625 C 26.929688 -70.84375 25.304688 -71.453125 23.265625 -71.453125 C 21.234375 -71.453125 19.609375 -70.84375 18.390625 -69.625 C 17.171875 -68.414062 16.5625 -66.320312 16.5625 -63.34375 Z M 3.640625 -62.515625 C 3.640625 -69.171875 5.320312 -74.28125 8.6875 -77.84375 C 12.0625 -81.414062 16.921875 -83.203125 23.265625 -83.203125 C 29.609375 -83.203125 34.460938 -81.414062 37.828125 -77.84375 C 41.203125 -74.28125 42.890625 -69.171875 42.890625 -62.515625 L 42.890625 -19.75 C 42.890625 -13.082031 41.203125 -7.96875 37.828125 -4.40625 C 34.460938 -0.84375 29.609375 0.9375 23.265625 0.9375 C 16.921875 0.9375 12.0625 -0.84375 8.6875 -4.40625 C 5.320312 -7.96875 3.640625 -13.082031 3.640625 -19.75 Z M 3.640625 -62.515625 "/></g></g></g><g fill="#ffffff" fill-opacity="1"><g transform="translate(628.270036, 197.543154)"><g><path d="M 16.5625 -18.921875 C 16.5625 -15.941406 17.171875 -13.84375 18.390625 -12.625 C 19.609375 -11.414062 21.234375 -10.8125 23.265625 -10.8125 C 25.304688 -10.8125 26.929688 -11.414062 28.140625 -12.625 C 29.359375 -13.84375 29.96875 -15.941406 29.96875 -18.921875 L 29.96875 -63.34375 C 29.96875 -66.320312 29.359375 -68.414062 28.140625 -69.625 C 26.929688 -70.84375 25.304688 -71.453125 23.265625 -71.453125 C 21.234375 -71.453125 19.609375 -70.84375 18.390625 -69.625 C 17.171875 -68.414062 16.5625 -66.320312 16.5625 -63.34375 Z M 3.640625 -62.515625 C 3.640625 -69.171875 5.320312 -74.28125 8.6875 -77.84375 C 12.0625 -81.414062 16.921875 -83.203125 23.265625 -83.203125 C 29.609375 -83.203125 34.460938 -81.414062 37.828125 -77.84375 C 41.203125 -74.28125 42.890625 -69.171875 42.890625 -62.515625 L 42.890625 -19.75 C 42.890625 -13.082031 41.203125 -7.96875 37.828125 -4.40625 C 34.460938 -0.84375 29.609375 0.9375 23.265625 0.9375 C 16.921875 0.9375 12.0625 -0.84375 8.6875 -4.40625 C 5.320312 -7.96875 3.640625 -13.082031 3.640625 -19.75 Z M 3.640625 -62.515625 "/></g></g></g><g fill="#ffffff" fill-opacity="1"><g transform="translate(674.804525, 197.543154)"><g><path d="M 16.5625 -18.921875 C 16.5625 -15.941406 17.171875 -13.84375 18.390625 -12.625 C 19.609375 -11.414062 21.234375 -10.8125 23.265625 -10.8125 C 25.304688 -10.8125 26.929688 -11.414062 28.140625 -12.625 C 29.359375 -13.84375 29.96875 -15.941406 29.96875 -18.921875 L 29.96875 -63.34375 C 29.96875 -66.320312 29.359375 -68.414062 28.140625 -69.625 C 26.929688 -70.84375 25.304688 -71.453125 23.265625 -71.453125 C 21.234375 -71.453125 19.609375 -70.84375 18.390625 -69.625 C 17.171875 -68.414062 16.5625 -66.320312 16.5625 -63.34375 Z M 3.640625 -62.515625 C 3.640625 -69.171875 5.320312 -74.28125 8.6875 -77.84375 C 12.0625 -81.414062 16.921875 -83.203125 23.265625 -83.203125 C 29.609375 -83.203125 34.460938 -81.414062 37.828125 -77.84375 C 41.203125 -74.28125 42.890625 -69.171875 42.890625 -62.515625 L 42.890625 -19.75 C 42.890625 -13.082031 41.203125 -7.96875 37.828125 -4.40625 C 34.460938 -0.84375 29.609375 0.9375 23.265625 0.9375 C 16.921875 0.9375 12.0625 -0.84375 8.6875 -4.40625 C 5.320312 -7.96875 3.640625 -13.082031 3.640625 -19.75 Z M 3.640625 -62.515625 "/></g></g></g><g fill="#ffffff" fill-opacity="1"><g transform="translate(490.79069, 260.711642)"><g><path d="M 21.09375 -15.328125 L 21.09375 -9.875 C 21.09375 -6.539062 20.28125 -3.984375 18.65625 -2.203125 C 17.03125 -0.421875 14.628906 0.46875 11.453125 0.46875 C 8.285156 0.46875 5.890625 -0.421875 4.265625 -2.203125 C 2.640625 -3.984375 1.828125 -6.539062 1.828125 -9.875 L 1.828125 -31.25 C 1.828125 -34.582031 2.640625 -37.140625 4.265625 -38.921875 C 5.890625 -40.703125 8.285156 -41.59375 11.453125 -41.59375 C 14.628906 -41.59375 17.03125 -40.703125 18.65625 -38.921875 C 20.28125 -37.140625 21.09375 -34.582031 21.09375 -31.25 L 21.09375 -27.265625 L 14.984375 -27.265625 L 14.984375 -31.671875 C 14.984375 -33.160156 14.675781 -34.207031 14.0625 -34.8125 C 13.457031 -35.414062 12.644531 -35.71875 11.625 -35.71875 C 10.613281 -35.71875 9.800781 -35.414062 9.1875 -34.8125 C 8.582031 -34.207031 8.28125 -33.160156 8.28125 -31.671875 L 8.28125 -9.453125 C 8.28125 -7.960938 8.582031 -6.925781 9.1875 -6.34375 C 9.800781 -5.757812 10.613281 -5.46875 11.625 -5.46875 C 12.644531 -5.46875 13.457031 -5.757812 14.0625 -6.34375 C 14.675781 -6.925781 14.984375 -7.960938 14.984375 -9.453125 L 14.984375 -15.328125 Z M 21.09375 -15.328125 "/></g></g></g><g fill="#ffffff" fill-opacity="1"><g transform="translate(519.871301, 260.711642)"><g><path d="M 8.8125 -23.796875 L 17.6875 -23.796875 L 17.6875 -17.921875 L 8.8125 -17.921875 L 8.8125 -5.875 L 19.96875 -5.875 L 19.96875 0 L 2.34375 0 L 2.34375 -41.125 L 19.96875 -41.125 L 19.96875 -35.25 L 8.8125 -35.25 Z M 8.8125 -23.796875 "/></g></g></g><g fill="#ffffff" fill-opacity="1"><g transform="translate(547.894478, 260.711642)"><g><path d="M 15.859375 0 C 15.785156 -0.269531 15.707031 -0.519531 15.625 -0.75 C 15.550781 -0.988281 15.484375 -1.285156 15.421875 -1.640625 C 15.359375 -1.992188 15.316406 -2.441406 15.296875 -2.984375 C 15.285156 -3.535156 15.28125 -4.222656 15.28125 -5.046875 L 15.28125 -11.515625 C 15.28125 -13.429688 14.945312 -14.78125 14.28125 -15.5625 C 13.613281 -16.351562 12.535156 -16.75 11.046875 -16.75 L 8.8125 -16.75 L 8.8125 0 L 2.34375 0 L 2.34375 -41.125 L 12.109375 -41.125 C 15.472656 -41.125 17.90625 -40.335938 19.40625 -38.765625 C 20.914062 -37.203125 21.671875 -34.835938 21.671875 -31.671875 L 21.671875 -28.4375 C 21.671875 -24.207031 20.265625 -21.425781 17.453125 -20.09375 C 19.097656 -19.425781 20.222656 -18.335938 20.828125 -16.828125 C 21.429688 -15.316406 21.734375 -13.488281 21.734375 -11.34375 L 21.734375 -5 C 21.734375 -3.976562 21.769531 -3.082031 21.84375 -2.3125 C 21.925781 -1.550781 22.125 -0.78125 22.4375 0 Z M 8.8125 -35.25 L 8.8125 -22.625 L 11.34375 -22.625 C 12.550781 -22.625 13.5 -22.9375 14.1875 -23.5625 C 14.875 -24.1875 15.21875 -25.320312 15.21875 -26.96875 L 15.21875 -31.015625 C 15.21875 -32.503906 14.953125 -33.582031 14.421875 -34.25 C 13.890625 -34.914062 13.054688 -35.25 11.921875 -35.25 Z M 8.8125 -35.25 "/></g></g></g><g fill="#ffffff" fill-opacity="1"><g transform="translate(577.915024, 260.711642)"><g><path d="M 0.59375 -41.125 L 20.5625 -41.125 L 20.5625 -35.25 L 13.8125 -35.25 L 13.8125 0 L 7.34375 0 L 7.34375 -35.25 L 0.59375 -35.25 Z M 0.59375 -41.125 "/></g></g></g><g fill="#ffffff" fill-opacity="1"><g transform="translate(605.468241, 260.711642)"><g><path d="M 2.34375 -41.125 L 8.8125 -41.125 L 8.8125 0 L 2.34375 0 Z M 2.34375 -41.125 "/></g></g></g><g fill="#ffffff" fill-opacity="1"><g transform="translate(623.034612, 260.711642)"><g><path d="M 8.8125 -22.859375 L 17.15625 -22.859375 L 17.15625 -16.984375 L 8.8125 -16.984375 L 8.8125 0 L 2.34375 0 L 2.34375 -41.125 L 19.453125 -41.125 L 19.453125 -35.25 L 8.8125 -35.25 Z M 8.8125 -22.859375 "/></g></g></g><g fill="#ffffff" fill-opacity="1"><g transform="translate(649.647891, 260.711642)"><g><path d="M 2.34375 -41.125 L 8.8125 -41.125 L 8.8125 0 L 2.34375 0 Z M 2.34375 -41.125 "/></g></g></g><g fill="#ffffff" fill-opacity="1"><g transform="translate(667.214262, 260.711642)"><g><path d="M 8.8125 -23.796875 L 17.6875 -23.796875 L 17.6875 -17.921875 L 8.8125 -17.921875 L 8.8125 -5.875 L 19.96875 -5.875 L 19.96875 0 L 2.34375 0 L 2.34375 -41.125 L 19.96875 -41.125 L 19.96875 -35.25 L 8.8125 -35.25 Z M 8.8125 -23.796875 "/></g></g></g><g fill="#ffffff" fill-opacity="1"><g transform="translate(695.23743, 260.711642)"><g><path d="M 2.34375 -41.125 L 12.578125 -41.125 C 15.828125 -41.125 18.242188 -40.257812 19.828125 -38.53125 C 21.410156 -36.8125 22.203125 -34.289062 22.203125 -30.96875 L 22.203125 -10.15625 C 22.203125 -6.832031 21.410156 -4.304688 19.828125 -2.578125 C 18.242188 -0.859375 15.828125 0 12.578125 0 L 2.34375 0 Z M 8.8125 -35.25 L 8.8125 -5.875 L 12.453125 -5.875 C 13.472656 -5.875 14.273438 -6.164062 14.859375 -6.75 C 15.453125 -7.34375 15.75 -8.382812 15.75 -9.875 L 15.75 -31.25 C 15.75 -32.738281 15.453125 -33.773438 14.859375 -34.359375 C 14.273438 -34.953125 13.472656 -35.25 12.453125 -35.25 Z M 8.8125 -35.25 "/></g></g></g></svg>