<svg xmlns="http://www.w3.org/2000/svg" xmlns:xlink="http://www.w3.org/1999/xlink" width="500" zoomAndPan="magnify" viewBox="0 0 375 374.999991" height="500" preserveAspectRatio="xMidYMid meet" version="1.0"><defs><clipPath id="4b8bf0f998"><path d="M 44.507812 235 L 330.257812 235 L 330.257812 374.816406 L 44.507812 374.816406 Z M 44.507812 235 " clip-rule="nonzero"/></clipPath><clipPath id="9bfd4d1efd"><path d="M 349.441406 368.414062 L 375 368.414062 L 375 375 L 349.441406 375 Z M 349.441406 368.414062 " clip-rule="nonzero"/></clipPath><clipPath id="2ab76c350d"><path d="M 405.691406 368.414062 C 374.625 368.414062 349.441406 393.597656 349.441406 424.664062 C 349.441406 455.730469 374.625 480.914062 405.691406 480.914062 C 436.757812 480.914062 461.941406 455.730469 461.941406 424.664062 C 461.941406 393.597656 436.757812 368.414062 405.691406 368.414062 Z M 405.691406 368.414062 " clip-rule="nonzero"/></clipPath></defs><rect x="-37.5" width="450" fill="#ffffff" y="-37.499999" height="449.999989" fill-opacity="1"/><rect x="-37.5" width="450" fill="#f1f1f1" y="-37.499999" height="449.999989" fill-opacity="1"/><path fill="#fcc09f" d="M 139.78125 145.308594 C 141.046875 152.433594 143.5625 160.53125 140.714844 161.039062 C 138.390625 161.453125 134.867188 157.652344 134.375 156.03125 C 132.320312 149.261719 128.816406 141.214844 129.808594 134.03125 C 130.203125 131.195312 132.816406 131.050781 135.183594 132.8125 C 137.503906 134.539062 138.519531 138.179688 139.78125 145.308594 " fill-opacity="1" fill-rule="nonzero"/><path fill="#fcc09f" d="M 235.996094 145.308594 C 234.730469 152.433594 232.214844 160.53125 235.0625 161.039062 C 237.390625 161.453125 240.910156 157.652344 241.402344 156.03125 C 243.453125 149.261719 246.960938 141.214844 245.964844 134.03125 C 245.574219 131.195312 242.960938 131.050781 240.59375 132.8125 C 238.277344 134.539062 237.261719 138.179688 235.996094 145.308594 " fill-opacity="1" fill-rule="nonzero"/><path fill="#fcc09f" d="M 187.59375 260.851562 C 147.316406 260.851562 129.15625 235.863281 132.101562 235.496094 C 135.363281 235.089844 139.714844 234.390625 140.308594 234.21875 C 146.320312 232.476562 154.109375 231.097656 156.050781 224.113281 C 156.1875 223.621094 156.53125 222.355469 156.863281 220.550781 C 157.421875 217.621094 158.300781 213.578125 158.953125 209.039062 C 159.019531 208.570312 159.222656 207.15625 159.449219 205.496094 C 159.796875 202.9375 160.214844 199.792969 160.308594 198.578125 C 160.3125 198.535156 160.3125 198.488281 160.320312 198.445312 C 160.320312 198.441406 160.320312 198.441406 160.320312 198.433594 C 160.3125 198.433594 160.296875 198.507812 160.289062 198.554688 C 160.285156 198.578125 160.28125 198.59375 160.28125 198.570312 L 160.28125 198.542969 C 160.726562 192.960938 214.519531 192.972656 214.964844 198.570312 C 214.984375 198.835938 215.015625 199.078125 215.050781 199.3125 C 215.089844 199.621094 215.140625 199.929688 215.167969 200.292969 C 215.253906 201.3125 215.667969 204.589844 215.957031 206.839844 C 216.101562 207.941406 216.210938 208.800781 216.246094 209.039062 C 216.894531 213.578125 217.769531 217.621094 218.332031 220.550781 C 218.660156 222.355469 219 223.621094 219.136719 224.113281 C 221.085938 231.097656 228.867188 232.476562 234.878906 234.21875 C 235.460938 234.390625 239.382812 235.039062 242.597656 235.445312 C 245.605469 235.824219 233.4375 260.851562 187.59375 260.851562 " fill-opacity="1" fill-rule="nonzero"/><path fill="#de9f7c" d="M 160.28125 198.570312 L 160.28125 198.542969 C 160.285156 198.546875 160.289062 198.554688 160.289062 198.554688 C 160.285156 198.578125 160.28125 198.59375 160.28125 198.570312 " fill-opacity="1" fill-rule="nonzero"/><path fill="#de9f7c" d="M 215.957031 206.839844 C 208.144531 216.648438 198.546875 223.542969 188.601562 223.613281 C 177.964844 223.691406 164.351562 215.832031 159.449219 205.496094 C 159.796875 202.9375 160.214844 199.792969 160.308594 198.578125 C 168.480469 209.003906 178.207031 215.964844 188.601562 215.886719 C 198.242188 215.824219 207.394531 208.628906 215.050781 199.3125 C 215.089844 199.621094 215.140625 199.929688 215.167969 200.292969 C 215.253906 201.3125 215.667969 204.589844 215.957031 206.839844 " fill-opacity="1" fill-rule="nonzero"/><path fill="#fcc09f" d="M 136.40625 131.367188 C 136.191406 99.335938 159.125 73.210938 187.636719 73.019531 C 216.140625 72.824219 242.675781 98.742188 240.078125 130.671875 C 237.425781 163.292969 217.105469 215.691406 188.601562 215.882812 C 160.089844 216.074219 136.625 163.402344 136.40625 131.367188 " fill-opacity="1" fill-rule="nonzero"/><path fill="#b66a57" d="M 244.5 102.0625 C 244.039062 100.457031 244.820312 95.996094 244.5 94.363281 C 243.679688 90.183594 238.15625 78.347656 238.09375 74.089844 C 238.027344 69.171875 238.574219 63.125 234.425781 59.566406 C 231.324219 56.914062 227.050781 56.101562 223.265625 54.882812 C 218.347656 53.292969 213.816406 54.09375 209.105469 51.378906 C 205.015625 49.027344 201.335938 45.851562 196.828125 44.304688 C 189.640625 41.84375 180.113281 45.257812 173.925781 49.050781 C 166.226562 53.769531 158.527344 58.484375 150.828125 58.484375 C 143.128906 58.484375 139.28125 63.203125 135.433594 72.644531 C 131.5625 82.128906 134.226562 92.046875 132.863281 102.0625 C 132.160156 107.25 130.421875 113.789062 130.371094 119.09375 C 130.308594 124.792969 135.730469 137.851562 136.230469 139.449219 C 136.386719 139.933594 137.0625 139.941406 137.234375 139.464844 C 138.285156 136.5 138.75 130.328125 138.75 128.738281 C 138.75 123.789062 139.414062 118.949219 142.5 115.246094 C 147.023438 109.8125 154.253906 107.71875 160.78125 105.84375 C 168.335938 103.667969 175.785156 101.054688 183.675781 100.425781 C 193.84375 99.617188 204.855469 101.453125 214.6875 98.136719 C 218.792969 96.753906 225.261719 90.941406 229 96.050781 C 230.605469 98.25 229.917969 101.847656 229.996094 104.410156 C 230.300781 114.425781 235.996094 127.160156 238.324219 137.207031 C 238.429688 137.65625 239.027344 137.742188 239.253906 137.339844 C 241.214844 133.789062 243.53125 122.851562 243.980469 117.363281 C 244.472656 111.316406 246.144531 107.757812 244.5 102.0625 " fill-opacity="1" fill-rule="nonzero"/><g clip-path="url(#4b8bf0f998)"><path fill="#6d393b" d="M 290.679688 252.167969 C 283.09375 247.746094 249.207031 234.902344 242.597656 235.445312 C 241.691406 235.519531 236.773438 242.613281 218.910156 251.59375 C 209.59375 256.277344 197.988281 257.121094 187.351562 257.277344 C 176.710938 257.121094 165.109375 256.300781 155.789062 251.617188 C 137.929688 242.632812 133.007812 235.425781 132.101562 235.496094 C 118.839844 236.539062 91.605469 247.742188 84.019531 252.167969 C 44.753906 275.082031 49.449219 326.855469 44.632812 374.847656 L 330.066406 374.847656 C 325.253906 326.855469 329.945312 275.082031 290.679688 252.167969 " fill-opacity="1" fill-rule="nonzero"/></g><g clip-path="url(#9bfd4d1efd)"><g clip-path="url(#2ab76c350d)"><path fill="#6d393b" d="M 349.441406 368.414062 L 461.941406 368.414062 L 461.941406 480.914062 L 349.441406 480.914062 Z M 349.441406 368.414062 " fill-opacity="1" fill-rule="nonzero"/></g></g></svg>